<svg xmlns="http://www.w3.org/2000/svg" viewBox="0 0 620 610" fill="none"><g stroke="#244760" stroke-width="8" stroke-linecap="round" stroke-linejoin="round"><circle cx="486" cy="116" r="76" fill="#c4a05b" stroke="none"/><path d="M486 17v-9m0 215v-9m99-98h13M375 116h-12m192-72 11-11m-150 11-11-11m150 155 11 11" stroke-width="5"/><path d="M71 475c80 14 161 16 230 9m-163 61c122 17 266 11 363-15" stroke-width="4"/><path d="M158 159c-15-59 23-98 71-88 22-52 102-53 137 1 60-20 118 26 107 84 57 12 70 91 24 120-31 21-90 11-127 18H161c-91 0-109-116-33-137 8-2 20-1 30 2Z" fill="#ffffff"/><path d="M226 174v15m102-15v15" stroke-width="11"/><path d="M247 224c22 19 43 19 64-1" stroke-width="6"/><path d="m207 294-33 121-52 40m220-161 20 121 51 28M127 455l-22 8m16-14-26-1m318-5 28 18m-32-16 32-4"/><path d="M146 294c-40 8-59 36-70 76m329-77c51 7 67 27 64 71"/><path d="M49 371c-14-4-21 4-17 15 5 11 32 14 43 4m-9-11-16-3" fill="#ffffff"/><rect x="366" y="369" width="185" height="121" rx="10" fill="#b67450"/><path d="M420 369v-27h78v27m-128 51h178m-96-7v24h19v-24"/><path d="m152 69-20-20m-5 40-26-1M561 284l25-12m-17 40h27" stroke-width="5"/></g></svg>