<svg width="19" height="20" viewBox="0 0 19 20" fill="none" xmlns="http://www.w3.org/2000/svg">
<path d="M17.0146 15.624L18.2061 15.8301L18.3291 15.8516L18.3076 15.9746C18.2177 16.4949 18.044 16.9747 17.7861 17.4131C17.5294 17.8495 17.214 18.2291 16.8408 18.5508C16.4667 18.8733 16.0385 19.1248 15.5566 19.3047C15.0737 19.485 14.5708 19.5752 14.0498 19.5752C13.4646 19.5752 12.9043 19.4626 12.3701 19.2373C11.9268 19.0504 11.5292 18.7909 11.1748 18.4629V19.5752H9.72461V15.7246H13.5752V17.1748H11.9336C12.1715 17.4402 12.4516 17.655 12.7754 17.8193C13.1766 18.0229 13.6008 18.125 14.0498 18.125C14.3976 18.125 14.7301 18.0649 15.0469 17.9453C15.3654 17.8251 15.6501 17.6606 15.9014 17.4512C16.1516 17.2427 16.3604 16.9883 16.5283 16.6885C16.6963 16.3885 16.811 16.0679 16.8711 15.7256L16.8926 15.6025L17.0146 15.624ZM3.97461 0.125V1.3252H12.125V0.125H13.5752V1.3252H15.9746V9.97461H14.5254V6.375H1.5752V14.5254H8.77539V15.9746H0.125V1.3252H2.52539V0.125H3.97461ZM18.375 10.9248V14.7754H14.5254V13.3252H16.166C15.9281 13.0598 15.648 12.845 15.3242 12.6807C14.923 12.4771 14.4988 12.375 14.0498 12.375C13.6958 12.375 13.3643 12.4347 13.0547 12.5537C12.7419 12.674 12.4557 12.8394 12.1973 13.0498C11.9416 13.2579 11.7334 13.5112 11.5723 13.8096C11.4098 14.1105 11.2949 14.4325 11.2285 14.7764L11.2061 14.8975L11.085 14.876L9.89453 14.6699L9.77148 14.6484L9.79199 14.5254C9.88195 14.005 10.0565 13.5254 10.3145 13.0869C10.5711 12.6506 10.8857 12.2709 11.2588 11.9492C11.633 11.6266 12.062 11.3752 12.5439 11.1953C13.0267 11.0151 13.5289 10.9248 14.0498 10.9248C14.6349 10.9248 15.1953 11.0375 15.7295 11.2627C16.1723 11.4494 16.5707 11.7076 16.9248 12.0352V10.9248H18.375ZM1.5752 4.9248H14.5254V2.77539H13.5752V3.97461H12.125V2.77539H3.97461V3.97461H2.52539V2.77539H1.5752V4.9248Z" fill="#6E164E" stroke="#782B65" stroke-width="0.25"/>
</svg>
